<svg xmlns="http://www.w3.org/2000/svg" width="32" height="32" fill="none" viewBox="0 0 32 32"><path fill="#1919ef" d="M16 32c8.837 0 16-7.163 16-16S24.837 0 16 0 0 7.163 0 16s7.163 16 16 16"/><path fill="#fff" d="M22.215 20.32c6.832-6.323 2.495-14.314-6.54-11.869 4.498 0 7.853 3.309 7.853 7.604a7.5 7.5 0 0 1-1.313 4.265M17.932 13.188h.013c-3.756-3.84-7.712-5.908-9.01-4.665-.358.365-.465.973-.345 1.757-.428-2.487 5.891.541 9.342 2.908M23.067 23.37c.345-.352.464-.94.345-1.686.305 2.393-5.907-.548-9.343-2.81a.01.01 0 0 1-.01-.003l-.003-.005-.001-.005c3.756 3.712 7.711 5.725 9.012 4.51M16.324 23.592c-4.507 0-7.864-3.293-7.864-7.6a7.5 7.5 0 0 1 1.311-4.264c-6.838 6.384-2.424 14.318 6.553 11.864"/></svg>